<?xml version="1.0" encoding="utf-8"?>
<!-- Generator: Adobe Illustrator 25.0.0, SVG Export Plug-In . SVG Version: 6.00 Build 0)  -->
<svg version="1.1" id="Capa_1" xmlns="http://www.w3.org/2000/svg" xmlns:xlink="http://www.w3.org/1999/xlink" x="0px" y="0px"
	 viewBox="0 0 595.28 396.82" style="enable-background:new 0 0 595.28 396.82;" xml:space="preserve">
<style type="text/css">
	.st0{fill:#FFFFFF;}
</style>
<g>
	<path class="st0" d="M8.12,391.62c-4.03-0.54-5.22-2.87-3.71-6.62c21.56-53.47,43.22-106.9,64.68-160.42
		c15.25-38.04,30.2-76.2,45.33-114.28c11.65-29.3,23.09-58.69,35.21-87.8c6-14.4,23.2-20.26,36.85-13.54
		c6.89,3.39,10.52,9.72,13.82,16.21c10.89,21.43,21.67,42.91,32.59,64.33c17.88,35.07,35.78,70.14,53.79,105.15
		c6.14,11.93,12.48,23.76,19.06,35.46c2,3.56,1.1,5.12-2.3,6.05c-11.08,3.01-22.03,6.97-33.32,8.69
		c-23.62,3.6-47.45,5.78-71.13,8.98c-11.66,1.57-23.52,3.01-34.7,6.44c-22.3,6.85-36.68,22.85-45.78,43.87
		c-5.97,13.77-10.58,28.27-17.82,41.33c-14.1,25.44-36.39,40.02-65.32,44.17c-6.39,0.92-12.79,1.78-19.19,2.67 M152.48,170.84
		c0,11.23-0.05,22.46,0.02,33.68c0.04,6.67,3.32,8.6,9.1,5.25c19.02-11.02,37.99-22.12,56.93-33.27c5.03-2.96,5.32-6.44,0.57-10.05
		c-3.74-2.84-7.97-5.02-12.01-7.46c-14.91-9-29.78-18.06-44.76-26.93c-5.93-3.51-9.8-1.23-9.83,5.53
		C152.44,148.68,152.48,159.76,152.48,170.84z"/>
	<path class="st0" d="M493.84,6.21c29.55,0,59.1,0.05,88.65-0.07c3.42-0.01,4.36,0.94,4.65,4.45c1.76,21.42-10.1,36.05-24.62,49.01
		c-15.08,13.45-33.44,19.09-53.4,19.26c-29.7,0.25-59.39,0.08-89.09,0.11c-4.43,0.01-8.87,0.06-13.29,0.28
		c-12.23,0.6-20.84,7.18-22.39,19.27c-1.53,11.94-1.21,24.12-1.65,36.2c-0.09,2.47,1.23,2.96,3.46,2.34
		c16.11-4.41,32.56-4.99,49.16-4.87c35.01,0.25,70.03,0.08,105.05,0.08c1.92,0,3.84,0,5.76,0.06c8.82,0.28,9.79,1.45,8.04,10
		c-5.97,29.12-23.69,47.77-51.47,57.2c-14.6,4.96-29.78,5.64-45.06,5.44c-14.18-0.19-28.37-0.38-42.55,0.02
		c-28.8,0.81-56.42,7.08-82.7,19.04c-5.5,2.51-11.09,4.81-16.65,7.19c-4.09,1.75-4.67,1.44-4.66-2.91
		c0.06-16.84,0.24-33.68,0.27-50.52c0.04-22.9-0.09-45.79-0.03-68.69c0.08-32.32,10.09-60.49,35.84-81.33
		c14.12-11.43,30.5-18.8,48.81-20.19c14.55-1.1,29.19-1.07,43.8-1.23c18.02-0.19,36.05-0.05,54.08-0.05
		C493.84,6.28,493.84,6.24,493.84,6.21z"/>
	<path class="st0" d="M383.11,274.93"/>
	<path class="st0" d="M382.97,318.77c-2.17,35.42-27.54,64.84-62.04,73.08c-4.82,1.15-8.98-0.77-10.15-4.68
		c-1.29-4.34,0.46-7.84,5.47-9.58c10.35-3.59,20.77-7.1,28.8-14.96c11.29-11.06,9.64-7.38,3.12-19.24
		c-8.59-15.63-16.79-31.48-25.14-47.25c-7.04-13.29-13.98-26.62-21.12-39.85c-1.45-2.68-1.48-4.08,1.62-5.32
		c17.79-7.13,35.41-14.69,53.33-21.46c7.39-2.79,15.38-4.03,23.13-5.85c3.69-0.87,3.72,1.8,3.72,4.29c0.01,13.88,0,27.77,0.01,41.65
		"/>
</g>
</svg>
