<svg id="Capa_1" data-name="Capa 1" xmlns="http://www.w3.org/2000/svg" viewBox="0 0 583.53 386.17"><path d="M16.07,391.68a60.21,60.21,0,0,1-8-.06c-4-.54-5.21-2.87-3.7-6.62Q36.76,304.79,69.1,224.58c15.25-38,30.19-76.19,45.33-114.27,11.65-29.3,23.09-58.69,35.21-87.8,6-14.4,23.2-20.26,36.85-13.54,6.89,3.4,10.52,9.73,13.82,16.22C211.2,46.61,222,68.1,232.89,89.51q26.84,52.62,53.79,105.15,9.21,17.9,19.06,35.46c2,3.56,1.1,5.12-2.3,6-11.08,3-22,7-33.32,8.68-23.62,3.6-47.45,5.79-71.13,9-11.66,1.57-23.52,3-34.7,6.44-22.3,6.85-36.68,22.85-45.78,43.87-6,13.77-10.58,28.27-17.82,41.33-14.1,25.44-36.4,40-65.32,44.16-6.39.92-12.79,1.79-19.19,2.68ZM152.48,170.84c0,11.23,0,22.46,0,33.68,0,6.67,3.32,8.6,9.1,5.25q28.53-16.53,56.94-33.26c5-3,5.32-6.44.56-10-3.73-2.84-8-5-12-7.46-14.91-9-29.78-18.06-44.77-26.93-5.92-3.51-9.79-1.23-9.83,5.53C152.44,148.68,152.48,159.76,152.48,170.84Z" transform="translate(-3.79 -6.14)"/><path d="M493.84,6.21c29.55,0,59.1,0,88.65-.07,3.42,0,4.36.94,4.65,4.45C588.9,32,577,46.65,562.52,59.6c-15.08,13.45-33.44,19.09-53.4,19.25-29.7.25-59.4.08-89.09.12-4.43,0-8.87.06-13.29.28-12.23.6-20.84,7.18-22.4,19.27s-1.2,24.13-1.65,36.2c-.09,2.47,1.23,3,3.47,2.35,16.1-4.41,32.56-5,49.16-4.88,35,.25,70,.08,105.05.08,1.92,0,3.84,0,5.76.07,8.82.28,9.79,1.44,8,10-6,29.12-23.69,47.77-51.46,57.2-14.6,5-29.78,5.64-45.06,5.44-14.18-.18-28.38-.38-42.55,0a212.16,212.16,0,0,0-82.7,19c-5.5,2.5-11.09,4.81-16.65,7.19-4.08,1.75-4.67,1.44-4.65-2.91.05-16.84.24-33.69.27-50.53,0-22.89-.1-45.79,0-68.68.08-32.32,10.1-60.5,35.84-81.33C361.28,16.34,377.66,9,396,7.59c14.54-1.1,29.19-1.08,43.79-1.23,18-.19,36.05-.05,54.08-.05Z" transform="translate(-3.79 -6.14)"/><path d="M383.11,274.93c0,14.61.75,29.28-.14,43.84-2.18,35.42-27.54,64.84-62,73.08-4.82,1.15-9-.77-10.15-4.68-1.29-4.34.46-7.84,5.47-9.58,10.36-3.59,20.78-7.1,28.81-15,11.29-11.05,9.64-7.38,3.12-19.24-8.59-15.63-16.79-31.48-25.14-47.24-7-13.29-14-26.62-21.12-39.85-1.44-2.68-1.48-4.08,1.62-5.32,17.79-7.13,35.41-14.69,53.33-21.46,7.39-2.79,15.38-4,23.12-5.84,3.7-.87,3.72,1.8,3.72,4.29q0,20.82,0,41.65v5.32Z" transform="translate(-3.79 -6.14)"/></svg>