<svg id="Capa_1" data-name="Capa 1" xmlns="http://www.w3.org/2000/svg" viewBox="0 0 479.88 315.64"><defs><style>.cls-1{fill:#fff;}</style></defs><path class="cls-1" d="M304.41,264.12c-.18-3.42-.47-6.42-.47-9.42,0-21.53-.13-43.06.08-64.59.11-11.71,1.62-23.29,6.11-34.22,8.31-20.25,22.32-34.87,42.85-43.1,11-4.41,22.37-6.06,34.13-6.05q70.9.12,141.82.12h2.26c-.36,4.1-.44,8.1-1.1,12-1.32,7.73-5.67,14.07-10.11,20.29-7.55,10.57-17.86,17.44-29.86,22a72.64,72.64,0,0,1-26.29,4.47c-25.35,0-50.7-.09-76.05,0a47.24,47.24,0,0,0-10.94,1.15c-8.68,2.1-12.89,8.52-13.86,16.8-.87,7.36-.68,14.83-.9,22.26-.09,2.75,0,5.5,0,8.61,2.14-.42,4-.73,5.81-1.14a150.35,150.35,0,0,1,33.32-3.39c30.75.12,61.49,0,92.24.07,3.21,0,6.42.34,10.1.55-.46,3.51-.61,6.79-1.34,9.94-4.93,21.2-18.21,35.11-38.13,43-11.51,4.55-23.62,5.46-35.89,5.44-15.4,0-30.83-.29-46.19.59a164.42,164.42,0,0,0-58.76,14.3c-14.94,6.74-30.16,12.94-46.2,16.49-10.25,2.27-20.74,3.55-31.17,4.92-18.13,2.38-36.43,3.77-54.42,6.88-19.72,3.42-34.46,14.8-43.38,32.79-4.6,9.27-7.94,19.17-11.94,28.74-7.3,17.46-18.71,31.2-35.84,39.93-10.6,5.4-21.94,7.56-33.58,8.52a82.72,82.72,0,0,1-13-.32c-2.31-.16-2.89-1.22-2-3.41,2.24-5.75,4.7-11.42,7-17.15q19.92-50,39.8-100c11.58-28.93,23.35-57.78,34.92-86.71,8.09-20.2,16-40.47,24-60.7,4.42-11.18,8.73-22.42,13.44-33.48A22.6,22.6,0,0,1,199.41,108c5.19,2,8.48,6,10.93,10.64,7,13.28,13.8,26.64,20.61,40q25.23,49.53,50.41,99.09c3.5,6.86,7.05,13.69,10.82,20.41,2.38,4.24,2.12,4.47,6.95,2.62,8.16-3.12,16.15-6.7,24.17-10.22a152.2,152.2,0,0,1,44.28-11.79c7.58-.86,15.22-1.33,22.84-1.46,13.3-.23,26.6,0,39.9-.09,12.47-.08,24.45-2.46,35.65-8.2s19-14.75,23.39-26.89c-1.11-.12-2.12-.3-3.14-.32-5.2-.1-10.4-.2-15.59-.21-22.52,0-45-.06-67.55,0a176,176,0,0,0-43.88,6.19c-2.72.71-5.49,1.25-8.33,1.88a6.43,6.43,0,0,1-.3-1.27c0-14.14-.13-28.3.14-42.44a33,33,0,0,1,8-21.62c5.81-6.65,13.42-9.77,22-10,13.55-.39,27.12-.27,40.68-.33,16-.07,32,.3,48-.27,12.29-.43,23.18-5.39,32.73-13.18,6.85-5.6,12.24-12.27,15.27-20.69.11-.3.2-.62.29-.93,0-.05,0-.12-.15-.39-.73,0-1.55-.12-2.38-.12-40.69,0-81.37-.14-122.06,0-9.65,0-19.31.48-28.77,3-17,4.54-29.85,14.49-38.63,29.69-6.69,11.59-9.31,24.36-9.71,37.49-.53,17.1-.32,34.22-.4,51.34q-.06,9.28,0,18.57a2,2,0,0,1-1.53,2.33C310.91,261.82,307.84,262.93,304.41,264.12Zm-235.25,145A44.61,44.61,0,0,0,87.43,406c15-5.74,26.89-15.2,34-29.82,3.52-7.25,6.27-14.89,9.14-22.44,4.66-12.25,10.87-23.56,20-33,10.8-11.16,24.11-17.75,39.25-21,13.44-2.88,27.07-4,40.71-5.11,14.89-1.26,29.74-2.81,44.31-6.34,2.47-.59,4.89-1.4,7.61-2.19-1.31-2.81-2.42-5.4-3.7-7.9Q256.41,234.62,234,191.06c-10.11-19.73-20.1-39.53-30.23-59.26a75.29,75.29,0,0,0-6-9.93c-2.21-3-5.43-3.87-9.16-2.85-4.1,1.13-6,4.33-7.5,7.81-2.64,6.16-5.08,12.4-7.56,18.63q-17.91,45-35.8,89.95c-9.49,23.75-19.11,47.44-28.61,71.18q-17.31,43.26-34.5,86.59C72.65,398.27,71.06,403.54,69.16,409.07Z" transform="translate(-51.31 -106.58)"/><path class="cls-1" d="M362.53,284.56a17.24,17.24,0,0,1,.21,1.75c0,23.3.15,46.6,0,69.9-.1,17.35-5.52,33-17.1,46-8.31,9.33-18.44,16.26-31,18.91a24.22,24.22,0,0,1-6.86.25c-3.22-.27-4.47-2.57-3.41-5.65a7.59,7.59,0,0,1,4.63-4.57c3.76-1.55,7.62-2.86,11.32-4.53,9.58-4.31,16.52-11.58,22-20.32A58.85,58.85,0,0,0,351.25,354c-.13-19.62-.14-39.23-.17-58.85a32.82,32.82,0,0,1,.35-5.7,3.47,3.47,0,0,1,1.68-2.39C356.14,286.05,359.28,285.38,362.53,284.56Z" transform="translate(-51.31 -106.58)"/><path class="cls-1" d="M332.61,380.21c-2.07-3.7-4.09-7.08-5.89-10.56Q312.83,342.86,299.06,316c-.93-1.8-1.59-3.74-2.41-5.6-.46-1-.23-1.89.78-2.28a59.87,59.87,0,0,1,7.19-2.48c2-.48,2.93,1.23,3.72,2.66,2.22,4,4.37,8.1,6.5,12.18,6.91,13.22,13.55,26.6,20.79,39.64,3.6,6.49,3.18,12.05-1.22,17.67C333.86,378.5,333.34,379.24,332.61,380.21Z" transform="translate(-51.31 -106.58)"/><path class="cls-1" d="M178.18,208a23.65,23.65,0,0,1,4.12,1.69c10.5,6.27,20.95,12.64,31.41,19,4.16,2.52,8.39,4.93,12.46,7.58a20.83,20.83,0,0,1,4.14,3.88,2.49,2.49,0,0,1-.22,3.85,39.72,39.72,0,0,1-5.33,4q-19.45,11.49-39,22.84a64.47,64.47,0,0,1-6.61,3.53c-3.58,1.54-5.6.3-5.9-3.62-.24-3.28-.21-6.58-.22-9.86q-.06-22.32-.07-44.64a35.5,35.5,0,0,1,.29-4.72C173.56,209.21,175.1,208,178.18,208Z" transform="translate(-51.31 -106.58)"/></svg>